<svg width="30" height="40" fill="none" xmlns="http://www.w3.org/2000/svg"><g clip-path="url(#clip0_1_304)"><path fill-rule="evenodd" clip-rule="evenodd" d="M6.39 24.567l2.28 1.407.798.696 1.984.775 2.412-.775h1.697l1.106.775 2.35-.775 1.234-1.161 2.514-.942 4.311 10.747h-6.114l-3.822 3.98-3.095-7.363-3.16 7.364-3.53-3.98H1.2l5.19-10.748z" fill="#BAF1FF"/><path d="M11.96.003c-1.156.034-2.273.622-2.91 1.65l-.225.365a1.809 1.809 0 01-1.506.85h-.002l-.436.01c-1.873.038-3.4 1.527-3.437 3.358l-.01.426a1.753 1.753 0 01-.87 1.471l-.373.222C.588 9.303.028 11.339.93 12.943h.002l.21.375c.299.53.299 1.169 0 1.699l-.21.373c-.903 1.603-.344 3.64 1.26 4.588l.373.22c.53.313.857.866.87 1.471v.002l.01.426c.031 1.48 1.041 2.724 2.415 3.17L1.43 34.65a.817.817 0 00.056.799c.157.24.428.384.72.384h5.56l3.156 3.854a.863.863 0 001.448-.187l2.657-5.933 2.658 5.933a.863.863 0 001.448.187l3.155-3.854h5.562a.858.858 0 00.719-.384.817.817 0 00.055-.8l-4.438-9.396c1.35-.459 2.34-1.692 2.37-3.156v-.002l.01-.424v-.002a1.754 1.754 0 01.87-1.471l.375-.222c1.603-.948 2.161-2.982 1.258-4.586l-.001-.002-.214-.376a1.723 1.723 0 01.002-1.696l.212-.373v-.002c.902-1.603.344-3.638-1.258-4.586l-.002-.002-.373-.22a1.752 1.752 0 01-.87-1.471V6.66l-.01-.424v-.002c-.039-1.83-1.564-3.32-3.437-3.358l-.437-.01a1.81 1.81 0 01-1.506-.85l-.226-.364C19.978.085 17.893-.46 16.25.422v.001l-.383.205a1.837 1.837 0 01-1.74 0l-.381-.205a3.535 3.535 0 00-1.786-.42zm-.043 1.662a1.85 1.85 0 011.008.218l.38.205a3.587 3.587 0 003.387 0l.382-.207v.002a1.816 1.816 0 012.414.632l.227.364a3.53 3.53 0 002.929 1.654l.438.01c.977.02 1.748.77 1.768 1.725v.002l.008.426a3.42 3.42 0 001.693 2.863l.373.222c.835.493 1.118 1.52.648 2.356l-.211.375a3.36 3.36 0 000 3.307l.001.002v.002l.212.369c.47.836.187 1.865-.648 2.358l-.373.222a3.417 3.417 0 00-1.693 2.863l-.009.426v.002c-.02.954-.79 1.706-1.767 1.725l-.439.01a3.53 3.53 0 00-2.928 1.652v.002l-.227.364a1.817 1.817 0 01-2.414.632v.002l-.382-.207a3.587 3.587 0 00-3.387 0l-.382.207v-.002a1.817 1.817 0 01-2.414-.632l-.226-.364a3.53 3.53 0 00-2.93-1.654l-.437-.01c-.977-.02-1.748-.77-1.768-1.725v-.002l-.009-.426a3.42 3.42 0 00-1.692-2.863l-.373-.222c-.836-.494-1.12-1.522-.649-2.358l.21-.371v-.002a3.36 3.36 0 000-3.307l-.211-.373h.001a1.73 1.73 0 01.647-2.358l.373-.222A3.419 3.419 0 005.14 6.698v-.002l.01-.426c.02-.955.789-1.708 1.766-1.727h.002l.436-.008a3.531 3.531 0 002.93-1.654l.227-.365a1.795 1.795 0 011.407-.851zm9.296 6.739l-7.03 10.734-5.65-4.968-1.142 1.24 7.146 6.282 8.112-12.39-1.436-.898zm1.21 17.098l4.091 8.664h-4.637a.86.86 0 00-.666.313l-2.53 3.09-2.723-6.084 1.436-3.206c1.371.21 2.8-.38 3.555-1.6l.227-.365a1.792 1.792 0 011.246-.812zm-14.796.007c.494.095.933.377 1.198.805l.227.365c.97 1.566 3.055 2.113 4.697 1.23v-.001l.383-.205a1.832 1.832 0 011.67-.026l-4.43 9.891-2.53-3.09a.86.86 0 00-.667-.312H3.54l4.088-8.657z" fill="#fff"/></g><defs><clipPath id="clip0_1_304"><path fill="#fff" d="M0 0h30v40H0z"/></clipPath></defs></svg>