<svg width="40" height="38" fill="none" xmlns="http://www.w3.org/2000/svg"><g clip-path="url(#clip0_1_312)"><path fill-rule="evenodd" clip-rule="evenodd" d="M3.108 2.455l.911 2.587L5 7.912l2.2 1.07 1.34 1.338v1.93L6.2 13.477l-2.18 3.709 3.18-1.841 2.495-.737 2.696.725 2.28.819h2.213L13.7 13.477l-1.31-1.228V9.821l1.31-.838 1.768-1.757 1.416-2.184.67-1.973 1.2-1.228-15.646.614z" fill="#BAF1FF"/><path d="M2.15 0C1.303 0 .613.689.613 1.534c0 .846.69 1.535 1.537 1.535h.523L4.18 6.456a6.717 6.717 0 002.701 3.047l1.11.665v1.76l-1.11.665a6.721 6.721 0 00-2.7 3.048l-1.51 3.387H2.15c-.848 0-1.537.687-1.537 1.534s.689 1.534 1.537 1.534h6.272c.012.056.03.11.043.166.523 1.958 1.624 3.395 2.787 3.708C13.17 32.01 18.04 38 23.826 38c5.787 0 10.656-5.99 12.575-12.03 1.162-.313 2.263-1.75 2.792-3.708.677-2.517.105-4.695-1.322-5.082a1.685 1.685 0 00-.964.045c-.032-1.448-.238-2.682-.626-3.734-.153-.414-.108-.56-.112-.56.176-.137 1.077-.016 1.935.339a.612.612 0 00.836-.698C37.384 5.468 32.105 1.228 24.817 1.228h-.99c-1.035 0-2.307.167-3.555.483.007-.06.018-.116.018-.177C20.29.69 19.6 0 18.753 0H2.15zm0 1.228h16.603a.307.307 0 110 .613H2.15a.307.307 0 110-.613zm21.677 1.227h.99c6.398 0 10.957 3.381 12.657 9.323-.742-.173-1.635-.232-2.155.266-.433.415-.497 1.044-.191 1.872.48 1.3.646 2.943.511 5.028a.614.614 0 00.615.653.613.613 0 00.613-.574c.01-.152.014-.298.02-.446.035-.014.072-.02.105-.04.16-.105.387-.215.56-.172.54.148.983 1.608.455 3.578-.252.94-.634 1.651-1.021 2.136-.388.485-.781.73-1.058.73a.62.62 0 00-.59.437c-1.703 5.733-6.205 11.526-11.512 11.526-5.306 0-9.808-5.793-11.511-11.526a.62.62 0 00-.59-.436c-.535 0-1.52-.94-2.03-2.713h9.058a1.536 1.536 0 100-3.069h-.522l-1.509-3.388a6.718 6.718 0 00-2.7-3.048l-1.11-.664v-1.76l1.11-.665a6.72 6.72 0 002.7-3.047l1.111-2.494c1.51-.873 3.969-1.507 5.995-1.507zM4.02 3.07h12.867l-1.288 2.89a5.5 5.5 0 01-2.209 2.493l-1.11.664c-.368.22-.598.623-.598 1.052v1.76c0 .429.23.832.597 1.053l1.11.665a5.506 5.506 0 011.762 1.687l-1.412-.565c-2.382-.868-4.35-.866-6.59.007l-1.395.557a5.506 5.506 0 011.762-1.687l1.11-.664c.368-.221.597-.624.597-1.053v-1.76c0-.43-.229-.833-.597-1.053l-1.11-.665a5.503 5.503 0 01-2.21-2.493L4.02 3.069zm19.687.616a.613.613 0 00-.564.66l.096 1.186a.614.614 0 101.225-.097l-.095-1.187a.615.615 0 00-.662-.562zm3.452.164a.614.614 0 00-.706.507L26.26 5.53a.613.613 0 00.608.713.615.615 0 00.606-.515l.192-1.173a.613.613 0 00-.507-.705zm3.058 1.07a.616.616 0 00-.57.371l-.466 1.08a.612.612 0 00.565.856.615.615 0 00.564-.37l.466-1.079a.613.613 0 00-.56-.858zm2.706 1.929a.612.612 0 00-.409.232l-.708.912a.613.613 0 00.485.99.616.616 0 00.486-.238l.708-.91a.613.613 0 00-.562-.986zM18.194 9.602a1.54 1.54 0 00-1.146.684l-1.479 2.24a.613.613 0 00.513.951c.2 0 .396-.096.514-.276l1.479-2.239a.308.308 0 01.391-.107l1.442.702c2.624 1.275 5.396 1.921 8.242 1.921a.615.615 0 100-1.229c-2.657 0-5.249-.603-7.702-1.796l-1.443-.702a1.531 1.531 0 00-.811-.149zm12.42 2.647a.615.615 0 100 1.228h1.848a.615.615 0 100-1.228h-1.849zM10.4 15.345c.92 0 1.855.19 2.898.57l2.672 1.067h.004l.91 2.046H4.02l.91-2.044 2.67-1.067c.978-.381 1.881-.572 2.8-.572zm19.73 3.069a1.229 1.229 0 101.23 1.227 1.23 1.23 0 00-1.23-1.227zM2.15 20.255h16.603c.172 0 .308.135.308.307a.304.304 0 01-.308.307H2.15a.304.304 0 01-.307-.307c0-.172.135-.307.307-.307z" fill="#fff"/></g><defs><clipPath id="clip0_1_312"><path fill="#fff" d="M0 0h40v38H0z"/></clipPath></defs></svg>